<svg id="Capa_1" enable-background="new 0 0 512.068 512.068" height="512" viewBox="0 0 512.068 512.068" width="512" xmlns="http://www.w3.org/2000/svg"><g id="Flat_23_"><g><g><path d="m415.513 309.968c-.515-1.153-12.144-26.479-39.058-29.643-1.36-4.114-2.903-8.183-4.615-12.172 5.865-6.079 12.112-8.275 18.615-6.532 3.47.928 7.141-.571 8.965-3.669 1.824-3.099 1.356-7.035-1.144-9.619-.88-.91-20.505-20.784-46.897-14.51-2.684-3.394-5.512-6.675-8.462-9.82 3.433-7.736 8.556-11.948 15.272-12.535 3.582-.313 6.516-2.979 7.169-6.515.654-3.536-1.131-7.074-4.364-8.648-1.136-.554-26.353-12.513-49.015 2.394-3.675-2.272-7.46-4.395-11.325-6.35.585-8.429 3.959-14.129 10.062-16.975 3.26-1.521 5.104-5.029 4.509-8.576-.597-3.547-3.486-6.261-7.064-6.632-1.252-.129-29.013-2.723-45.209 19.017-4.238-.874-8.527-1.568-12.833-2.078-2.34-8.129-1.122-14.646 3.644-19.411 2.543-2.543 3.076-6.472 1.303-9.601s-5.414-4.689-8.906-3.815c-1.225.307-28.201 7.366-35.98 33.339-4.288.622-8.56 1.428-12.779 2.414-4.97-6.833-6.05-13.368-3.204-19.471 1.521-3.26.678-7.133-2.059-9.468-2.737-2.336-6.696-2.554-9.674-.539-1.046.708-23.977 16.563-22.409 43.626-3.817 2.059-7.552 4.283-11.173 6.655-7.014-4.722-10.267-10.496-9.68-17.208.313-3.582-1.802-6.933-5.171-8.191-3.368-1.257-7.163-.113-9.274 2.797-.742 1.024-16.906 23.793-6.145 48.706-2.871 3.223-5.613 6.578-8.205 10.036-8.214-2.037-13.249-6.351-14.994-12.862-.931-3.474-4.066-5.9-7.663-5.929-.021 0-.043 0-.065 0-3.569 0-6.711 2.367-7.692 5.806-.346 1.214-7.715 28.092 10.869 47.815-1.605 4.031-3.04 8.139-4.293 12.29-8.401.885-14.595-1.447-18.457-6.962-2.062-2.946-5.837-4.154-9.229-2.95-3.39 1.203-5.56 4.521-5.304 8.108.09 1.26 2.361 29.061 26.599 41.23-.048 1.531-.071 3.04-.071 4.52 0 2.783.081 5.615.24 8.466-7.604 3.72-14.234 3.652-19.756-.214-2.947-2.063-6.908-1.905-9.682.384-2.774 2.29-3.679 6.149-2.211 9.433.515 1.153 12.144 26.479 39.058 29.643 1.36 4.114 2.903 8.183 4.615 12.172-5.865 6.079-12.114 8.276-18.615 6.532-3.47-.929-7.141.57-8.965 3.669s-1.356 7.035 1.144 9.619c.76.786 15.51 15.733 36.542 15.731 3.307 0 6.77-.37 10.355-1.222 2.684 3.394 5.512 6.675 8.462 9.82-3.433 7.736-8.556 11.948-15.272 12.535-3.582.313-6.516 2.979-7.169 6.515-.654 3.536 1.131 7.074 4.364 8.648 1.137.554 26.353 12.511 49.015-2.394 3.675 2.272 7.46 4.395 11.325 6.35-.585 8.429-3.959 14.129-10.062 16.975-3.26 1.521-5.104 5.029-4.509 8.576.597 3.547 3.486 6.261 7.064 6.632 1.255.13 29.013 2.723 45.209-19.017 4.238.874 8.527 1.568 12.833 2.078 2.34 8.129 1.122 14.646-3.644 19.411-2.543 2.543-3.076 6.472-1.303 9.601 1.444 2.548 4.128 4.057 6.959 4.056.646 0 1.299-.078 1.947-.241 1.225-.307 28.201-7.366 35.98-33.339 4.288-.622 8.56-1.428 12.779-2.414 4.97 6.833 6.05 13.368 3.204 19.471-1.521 3.26-.678 7.133 2.059 9.468s6.695 2.555 9.674.539c1.046-.708 23.977-16.563 22.409-43.626 3.816-2.059 7.55-4.282 11.172-6.655 7.015 4.723 10.268 10.496 9.681 17.208-.313 3.582 1.802 6.933 5.171 8.191 3.37 1.26 7.163.114 9.274-2.797.742-1.024 16.906-23.793 6.145-48.706 2.871-3.223 5.613-6.578 8.205-10.036 8.214 2.037 13.25 6.351 14.994 12.862.931 3.474 4.066 5.9 7.663 5.929h.065c3.569 0 6.711-2.367 7.692-5.806.346-1.214 7.715-28.092-10.869-47.815 1.605-4.031 3.04-8.138 4.293-12.289 8.398-.886 14.595 1.446 18.456 6.961 2.063 2.947 5.837 4.153 9.229 2.951 3.39-1.203 5.56-4.521 5.304-8.109-.09-1.26-2.361-29.061-26.599-41.23.048-1.531.071-3.04.071-4.52 0-2.783-.081-5.615-.24-8.466 7.604-3.72 14.234-3.653 19.756.214 2.947 2.063 6.908 1.906 9.682-.384 2.775-2.289 3.679-6.149 2.212-9.432z" fill="#efeaed"/><path d="m288 472.037c-97.202 0-176-78.798-176-176 0-37.203 11.553-71.702 31.253-100.127-3.086-3.644-4.449-7.749-4.052-12.285.313-3.582-1.802-6.933-5.171-8.191-3.368-1.257-7.163-.113-9.274 2.797-.742 1.024-16.906 23.793-6.145 48.706-2.871 3.223-5.613 6.578-8.205 10.036-8.214-2.037-13.249-6.351-14.994-12.862-.931-3.474-4.066-5.9-7.663-5.929-.021 0-.043 0-.065 0-3.569 0-6.711 2.367-7.692 5.806-.346 1.214-7.715 28.092 10.869 47.815-1.605 4.031-3.04 8.139-4.293 12.29-8.401.885-14.595-1.447-18.457-6.962-2.062-2.946-5.837-4.154-9.229-2.95-3.39 1.203-5.56 4.521-5.304 8.108.09 1.26 2.361 29.061 26.599 41.23-.048 1.531-.071 3.04-.071 4.52 0 2.783.081 5.615.24 8.466-7.604 3.72-14.234 3.652-19.756-.214-2.947-2.063-6.908-1.905-9.682.384-2.774 2.29-3.679 6.149-2.211 9.433.515 1.153 12.144 26.479 39.058 29.643 1.36 4.114 2.903 8.183 4.615 12.172-5.865 6.079-12.114 8.276-18.615 6.532-3.47-.929-7.141.57-8.965 3.669s-1.356 7.035 1.144 9.619c.76.786 15.51 15.733 36.542 15.731 3.307 0 6.77-.37 10.355-1.222 2.684 3.394 5.512 6.675 8.462 9.82-3.433 7.736-8.556 11.948-15.272 12.535-3.582.313-6.516 2.979-7.169 6.515-.654 3.536 1.131 7.074 4.364 8.648 1.137.554 26.353 12.511 49.015-2.394 3.675 2.272 7.46 4.395 11.325 6.35-.585 8.429-3.959 14.129-10.062 16.975-3.26 1.521-5.104 5.029-4.509 8.576.597 3.547 3.486 6.261 7.064 6.632 1.255.13 29.013 2.723 45.209-19.017 4.238.874 8.527 1.568 12.833 2.078 2.34 8.129 1.122 14.646-3.644 19.411-2.543 2.543-3.076 6.472-1.303 9.601 1.444 2.548 4.128 4.057 6.959 4.056.646 0 1.299-.078 1.947-.241 1.225-.307 28.201-7.366 35.98-33.339 4.288-.622 8.56-1.428 12.779-2.414 4.97 6.833 6.05 13.368 3.204 19.471-1.521 3.26-.678 7.133 2.059 9.468s6.695 2.555 9.674.539c.918-.621 18.68-12.906 21.963-34.19-5.176.457-10.413.705-15.709.705z" fill="#dfd5db"/><circle cx="232.104" cy="328.037" fill="#bfabb8" r="96"/><circle cx="232.104" cy="328.037" fill="#7e5771" r="48"/><path d="m256 360.037c-26.468 0-48-21.533-48-48 0-11.371 3.982-21.824 10.615-30.057-19.919 5.844-34.51 24.273-34.51 46.057 0 26.467 21.532 48 48 48 15.097 0 28.58-7.012 37.385-17.943-4.282 1.256-8.806 1.943-13.49 1.943z" fill="#6e425f"/></g></g><g><path d="m158.048 148.741-22.688-26.2c-4.348-5.02-10.646-8.036-17.283-8.274-6.614-.229-13.135 2.318-17.831 7.014l-22.569 22.569c-8.857 8.857-9.372 23.213-1.172 32.681l24.192 27.938c1.454 1.679 3.541 2.678 5.761 2.758.096.003.191.005.287.005 2.118 0 4.154-.84 5.657-2.343l45.255-45.255c2.967-2.967 3.137-7.721.391-10.893z" fill="#ffed77"/><path d="m129.724 186.673c-1.503 1.503-3.539 2.343-5.657 2.343-.096 0-.191-.002-.287-.005-2.22-.08-4.307-1.079-5.761-2.758l-24.192-27.938c-6.997-8.079-7.627-19.707-2.164-28.451l-13.986 13.986c-8.857 8.857-9.372 23.213-1.172 32.681l24.192 27.938c1.454 1.679 3.541 2.678 5.761 2.758.096.003.191.005.287.005 2.118 0 4.154-.84 5.657-2.343l45.255-45.255c.778-.778 1.359-1.681 1.75-2.644z" fill="#ffe11c"/><path d="m496.862 112.409-130.684-103.704c-8.422-6.683-18.938-9.664-29.616-8.383-10.653 1.274-20.155 6.63-26.762 15.082l-84.145 104.745c-53.598 1.602-103.741 23.409-141.564 61.656-38.75 39.184-60.091 91.117-60.091 146.232 0 4.418 3.582 0 8 0h64c4.418 0 8 4.418 8 0 0-70.58 57.421-128 128-128s128 57.42 128 128c0 4.418 3.582 0 8 0h64c4.418 0 8 4.418 8 0 0-23.778-3.98-47.063-11.839-69.293l75.65-90.769c.094-.113.185-.228.271-.345 12.989-17.447 9.817-41.703-7.22-55.221zm-58.914 34.951-32.021 40.487-90.617-74.186 29.977-39.833z" fill="#53d4a9"/><g fill="#21b89c"><path d="m399.932 328.037c0-70.58-57.421-128-128-128-6.791 0-13.458.537-19.966 1.561 61.129 9.615 108.034 62.65 108.034 126.439 0 4.418 3.582 0 8 0h39.932c-4.418 0-8 4.418-8 0z"/><path d="m63.932 328.037c0-55.115 21.341-107.048 60.091-146.232 37.823-38.248 87.967-60.055 141.564-61.656l84.145-104.745c3.223-4.124 7.14-7.504 11.54-10.039-7.435-4.302-16.019-6.084-24.71-5.042-10.653 1.274-20.155 6.63-26.762 15.082l-84.145 104.745c-53.598 1.602-103.741 23.409-141.564 61.656-38.75 39.183-60.091 91.116-60.091 146.231 0 4.418 3.582 0 8 0h39.932c-4.418 0-8 4.418-8 0z"/></g><circle cx="328" cy="184.037" fill="#ff9c62" r="24"/><path d="m456 336.037h-448c-4.418 0-8-3.582-8-8s3.582-8 8-8h448c4.418 0 8 3.582 8 8s-3.582 8-8 8z" fill="#ffe749"/></g></g></svg>