<svg height="512pt" viewBox="0 0 512 512" width="512pt" xmlns="http://www.w3.org/2000/svg"><path d="m512 256c0 141.386719-114.613281 256-256 256s-256-114.613281-256-256 114.613281-256 256-256 256 114.613281 256 256zm0 0" fill="#966442"/><path d="m168.730469 496.730469c27.238281 9.875 56.621093 15.269531 87.269531 15.269531 141.386719 0 256-114.613281 256-256 0-30.648438-5.394531-60.03125-15.269531-87.269531l-44.730469-44.730469-392 54 43.273438 43.273438-43.273438 26.726562 53.34375 53.34375-53.34375 16.65625 37.753906 37.753906-37.753906 32.246094zm0 0" fill="#66402d"/><path d="m60 124h118.8125v54h-118.8125zm0 0" fill="#ff583e"/><path d="m196.59375 124h118.8125v54h-118.8125zm0 0" fill="#ff583e"/><path d="m333.1875 124h118.8125v54h-118.8125zm0 0" fill="#ff583e"/><path d="m60 264h118.8125v54h-118.8125zm0 0" fill="#ff583e"/><path d="m196.59375 264h118.8125v54h-118.8125zm0 0" fill="#ff583e"/><path d="m256.40625 264h59v54h-59zm0 0" fill="#db0404"/><g fill="#ff583e"><path d="m333.1875 264h118.8125v54h-118.8125zm0 0"/><path d="m129 194h118.8125v54h-118.8125zm0 0"/><path d="m265.59375 194h118.8125v54h-118.8125zm0 0"/><path d="m402.1875 194h48.699219v54h-48.699219zm0 0"/><path d="m60 194h50v54h-50zm0 0"/><path d="m129 334h118.8125v54h-118.8125zm0 0"/></g><path d="m265.59375 334h118.8125v54h-118.8125zm0 0" fill="#db0404"/><path d="m402.1875 334h49.8125v54h-49.8125zm0 0" fill="#ff583e"/><path d="m60 334h50v54h-50zm0 0" fill="#ff583e"/><path d="m452 124h-304.421875c17.761719 30.914062 42.53125 56.667969 76.421875 72 13 5 24 17 26 30 5 33 9 72 37 87 35.472656 20.496094 78.390625 39.132812 93.019531 75h71.980469zm0 0" fill="#fff"/><path d="m256.40625 124v139.554688c4.835938 21.007812 12.949219 39.992187 30.59375 49.445312 35.472656 20.496094 78.390625 39.132812 93.019531 75h71.980469v-264zm0 0" fill="#e9edf5"/></svg>