<?xml version="1.0" encoding="iso-8859-1"?>
<!-- Generator: Adobe Illustrator 19.0.0, SVG Export Plug-In . SVG Version: 6.00 Build 0)  -->
<svg version="1.1" id="Capa_1" xmlns="http://www.w3.org/2000/svg" xmlns:xlink="http://www.w3.org/1999/xlink" x="0px" y="0px"
	 viewBox="0 0 512.018 512.018" style="enable-background:new 0 0 512.018 512.018;" xml:space="preserve">
<g transform="translate(-1)">
	<path style="fill:#7F8C8D;" d="M333.198,364.97c-7.003-0.013-13.789-2.433-19.22-6.853l-80.16-64.797
		c-3.792-3.066-4.381-8.626-1.315-12.418c3.066-3.792,8.626-4.381,12.418-1.315l80.155,64.798c3.777,3.114,9.003,3.796,13.453,1.754
		c6.521-2.971,9.425-10.646,6.504-17.19l-45.992-101.164c-1.998-4.433-0.034-9.648,4.392-11.662
		c4.426-2.014,9.648-0.068,11.677,4.351l45.992,101.164c6.929,15.397,0.139,33.501-15.207,40.543
		C341.914,364.015,337.582,364.966,333.198,364.97L333.198,364.97z"/>
	<path style="fill:#5E5F62;" d="M166.984,340.832c21.453,39.894,9.221,89.551-28.306,114.917
		c-37.528,25.366-88.165,18.203-117.186-16.576s-26.999-85.881,4.677-118.26s82.721-35.52,118.129-7.27L166.984,340.832z"/>
	<path style="fill:#527F72;" d="M138.912,364.225c8.89,24.159-0.911,51.21-23.212,64.068c-22.301,12.859-50.622,7.788-67.077-12.009
		c-16.455-19.797-16.261-48.568,0.458-68.142c16.719-19.574,45.106-24.263,67.232-11.106"/>
	<path style="fill:#4C8056;" d="M318.818,161.897V58.791c0.009-6.185-3.223-11.923-8.517-15.121
		c-5.294-3.198-11.877-3.389-17.347-0.504L25.39,184.319c-5.324,2.817-8.848,8.152-9.348,14.154
		c-0.5,6.003,2.091,11.847,6.876,15.506l119.349,97.986l17.655,17.655L318.818,188.38V161.897z"/>
	<path style="fill:#7F8C8D;" d="M512.959,84.009c-1.143,9.338-9.172,16.294-18.577,16.095H462.39c-4.129,0-8.128,1.447-11.301,4.09
		L100.601,396.181c-7.513,6.174-18.602,5.12-24.818-2.358c-6.216-7.478-5.224-18.573,2.219-24.831L432.578,72.997
		c6.349-5.3,14.357-8.204,22.628-8.204h40.164c4.943,0.034,9.648,2.125,12.986,5.771C511.693,74.211,513.361,79.082,512.959,84.009z
		"/>
	<path style="fill:#71C285;" d="M318.818,58.791v6.003L36.336,223.69l-0.618,0.794l-12.8-10.505
		c-4.785-3.659-7.376-9.503-6.876-15.506c0.5-6.003,4.023-11.338,9.348-14.154L292.954,43.166
		c5.471-2.885,12.053-2.694,17.348,0.504C315.595,46.868,318.827,52.605,318.818,58.791z"/>
</g>
<g>
</g>
<g>
</g>
<g>
</g>
<g>
</g>
<g>
</g>
<g>
</g>
<g>
</g>
<g>
</g>
<g>
</g>
<g>
</g>
<g>
</g>
<g>
</g>
<g>
</g>
<g>
</g>
<g>
</g>
</svg>
